<svg width="305" height="60" viewBox="0 0 305 60" fill="none" xmlns="http://www.w3.org/2000/svg">
<g clip-path="url(#clip0_29_26)">
<path d="M69.5163 -0.00592041H6.48375C2.90863 -0.00592041 0 2.89161 0 6.45307V53.5469C0 57.1084 2.90863 60.0059 6.48375 60.0059H69.5163C73.0914 60.0059 76 57.1084 76 53.5469V6.45307C76 2.89161 73.0914 -0.00592041 69.5163 -0.00592041ZM73.5379 53.5469C73.5379 55.756 71.7338 57.5532 69.5163 57.5532H6.48375C4.26624 57.5532 2.46213 55.756 2.46213 53.5469V12.9122H73.5377V53.5469H73.5379ZM73.5379 10.4593H2.46213V6.45307C2.46213 4.24403 4.26624 2.44681 6.48375 2.44681H69.5163C71.7338 2.44681 73.5379 4.24403 73.5379 6.45307V10.4593Z" fill="#FFD700"/>
<path d="M9.11019 5.22678H7.79697C7.11712 5.22678 6.56583 5.77582 6.56583 6.45322C6.56583 7.13046 7.11697 7.67965 7.79697 7.67965H9.11019C9.79004 7.67965 10.3413 7.13061 10.3413 6.45322C10.3412 5.77582 9.79004 5.22678 9.11019 5.22678Z" fill="#FFD700"/>
<path d="M14.3628 5.22678H13.0496C12.3697 5.22678 11.8185 5.77582 11.8185 6.45322C11.8185 7.13046 12.3696 7.67965 13.0496 7.67965H14.3628C15.0427 7.67965 15.594 7.13061 15.594 6.45322C15.594 5.77582 15.0428 5.22678 14.3628 5.22678Z" fill="#FFD700"/>
<path d="M19.6156 5.22678H18.3023C17.6225 5.22678 17.0712 5.77582 17.0712 6.45322C17.0712 7.13046 17.6223 7.67965 18.3023 7.67965H19.6156C20.2954 7.67965 20.8467 7.13061 20.8467 6.45322C20.8467 5.77582 20.2954 5.22678 19.6156 5.22678Z" fill="#FFD700"/>
<path d="M69.5162 15.692H6.48373C5.80389 15.692 5.25259 16.2411 5.25259 16.9185V45.698C5.25259 46.3752 5.80374 46.9244 6.48373 46.9244H69.5162C70.1961 46.9244 70.7474 46.3754 70.7474 45.698V16.9183C70.7472 16.2411 70.1961 15.692 69.5162 15.692ZM68.2851 44.4715H7.71488V18.1448H68.2851V44.4715Z" fill="#FFD700"/>
<path d="M69.5162 51.0123H19.331C18.8159 49.4932 17.3727 48.396 15.6762 48.396C13.9797 48.396 12.5364 49.4932 12.0213 51.0123H6.48373C5.80389 51.0123 5.25259 51.5613 5.25259 52.2387C5.25259 52.916 5.80374 53.4652 6.48373 53.4652H12.021C12.5361 54.9842 13.9794 56.0814 15.6759 56.0814C17.3724 56.0814 18.8156 54.9842 19.3307 53.4652H69.5159C70.1958 53.4652 70.7471 52.9161 70.7471 52.2387C70.7472 51.5615 70.1961 51.0123 69.5162 51.0123ZM15.676 53.6287C14.9067 53.6287 14.2807 53.0051 14.2807 52.2387C14.2807 51.4723 14.9067 50.8487 15.676 50.8487C16.4454 50.8487 17.0713 51.4721 17.0713 52.2387C17.0713 53.0053 16.4454 53.6287 15.676 53.6287Z" fill="#FFD700"/>
<path d="M45.6683 29.0834L35.279 23.438C34.4829 23.0053 33.5418 23.0224 32.7619 23.4836C31.982 23.945 31.5164 24.7596 31.5164 25.6633V36.9538C31.5162 37.8571 31.9817 38.6717 32.7618 39.1329C33.1654 39.3718 33.612 39.4914 34.0597 39.4914C34.477 39.4914 34.8948 39.3874 35.279 39.1786L45.6681 33.5334C46.486 33.0889 46.9943 32.2364 46.9943 31.3084C46.9943 30.3803 46.486 29.5276 45.6683 29.0834ZM44.4891 31.3798L34.0998 37.025C34.0833 37.0341 34.059 37.0472 34.0186 37.0236C33.9784 36.9998 33.9784 36.9717 33.9784 36.9533V25.663H33.9785C33.9785 25.6445 33.9785 25.6164 34.0187 25.5926C34.0357 25.5827 34.0496 25.5791 34.0616 25.5791C34.0783 25.5791 34.0906 25.5858 34.1001 25.591L44.4894 31.2364C44.5075 31.2461 44.5321 31.2596 44.5321 31.3079C44.5321 31.3563 44.5073 31.3699 44.4891 31.3798Z" fill="#FFD700"/>
</g>
<path d="M117.514 18.132L109.048 42H101.772L93.306 18.132H99.494L105.41 36.152L111.36 18.132H117.514ZM122.868 21.056C121.848 21.056 121.009 20.7613 120.352 20.172C119.717 19.56 119.4 18.812 119.4 17.928C119.4 17.0213 119.717 16.2733 120.352 15.684C121.009 15.072 121.848 14.766 122.868 14.766C123.865 14.766 124.681 15.072 125.316 15.684C125.973 16.2733 126.302 17.0213 126.302 17.928C126.302 18.812 125.973 19.56 125.316 20.172C124.681 20.7613 123.865 21.056 122.868 21.056ZM125.758 23.028V42H119.944V23.028H125.758ZM128.815 32.48C128.815 30.5307 129.178 28.8193 129.903 27.346C130.651 25.8727 131.66 24.7393 132.929 23.946C134.199 23.1527 135.615 22.756 137.179 22.756C138.426 22.756 139.559 23.0167 140.579 23.538C141.622 24.0593 142.438 24.762 143.027 25.646V16.84H148.841V42H143.027V39.28C142.483 40.1867 141.701 40.912 140.681 41.456C139.684 42 138.517 42.272 137.179 42.272C135.615 42.272 134.199 41.8753 132.929 41.082C131.66 40.266 130.651 39.1213 129.903 37.648C129.178 36.152 128.815 34.4293 128.815 32.48ZM143.027 32.514C143.027 31.0633 142.619 29.9187 141.803 29.08C141.01 28.2413 140.035 27.822 138.879 27.822C137.723 27.822 136.737 28.2413 135.921 29.08C135.128 29.896 134.731 31.0293 134.731 32.48C134.731 33.9307 135.128 35.0867 135.921 35.948C136.737 36.7867 137.723 37.206 138.879 37.206C140.035 37.206 141.01 36.7867 141.803 35.948C142.619 35.1093 143.027 33.9647 143.027 32.514ZM170.931 32.208C170.931 32.752 170.897 33.3187 170.829 33.908H157.671C157.762 35.0867 158.136 35.9933 158.793 36.628C159.473 37.24 160.301 37.546 161.275 37.546C162.726 37.546 163.735 36.934 164.301 35.71H170.489C170.172 36.9567 169.594 38.0787 168.755 39.076C167.939 40.0733 166.908 40.8553 165.661 41.422C164.415 41.9887 163.021 42.272 161.479 42.272C159.621 42.272 157.966 41.8753 156.515 41.082C155.065 40.2887 153.931 39.1553 153.115 37.682C152.299 36.2087 151.891 34.486 151.891 32.514C151.891 30.542 152.288 28.8193 153.081 27.346C153.897 25.8727 155.031 24.7393 156.481 23.946C157.932 23.1527 159.598 22.756 161.479 22.756C163.315 22.756 164.947 23.1413 166.375 23.912C167.803 24.6827 168.914 25.782 169.707 27.21C170.523 28.638 170.931 30.304 170.931 32.208ZM164.981 30.678C164.981 29.6807 164.641 28.8873 163.961 28.298C163.281 27.7087 162.431 27.414 161.411 27.414C160.437 27.414 159.609 27.6973 158.929 28.264C158.272 28.8307 157.864 29.6353 157.705 30.678H164.981ZM182.635 42.272C180.776 42.272 179.099 41.8753 177.603 41.082C176.129 40.2887 174.962 39.1553 174.101 37.682C173.262 36.2087 172.843 34.486 172.843 32.514C172.843 30.5647 173.273 28.8533 174.135 27.38C174.996 25.884 176.175 24.7393 177.671 23.946C179.167 23.1527 180.844 22.756 182.703 22.756C184.561 22.756 186.239 23.1527 187.735 23.946C189.231 24.7393 190.409 25.884 191.271 27.38C192.132 28.8533 192.563 30.5647 192.563 32.514C192.563 34.4633 192.121 36.186 191.237 37.682C190.375 39.1553 189.185 40.2887 187.667 41.082C186.171 41.8753 184.493 42.272 182.635 42.272ZM182.635 37.24C183.745 37.24 184.686 36.832 185.457 36.016C186.25 35.2 186.647 34.0327 186.647 32.514C186.647 30.9953 186.261 29.828 185.491 29.012C184.743 28.196 183.813 27.788 182.703 27.788C181.569 27.788 180.629 28.196 179.881 29.012C179.133 29.8053 178.759 30.9727 178.759 32.514C178.759 34.0327 179.121 35.2 179.847 36.016C180.595 36.832 181.524 37.24 182.635 37.24ZM213.837 25.816C213.837 27.1987 213.52 28.468 212.885 29.624C212.25 30.7573 211.276 31.6753 209.961 32.378C208.646 33.0807 207.014 33.432 205.065 33.432H201.461V42H195.647V18.132H205.065C206.969 18.132 208.578 18.4607 209.893 19.118C211.208 19.7753 212.194 20.682 212.851 21.838C213.508 22.994 213.837 24.32 213.837 25.816ZM204.623 28.808C205.734 28.808 206.561 28.5473 207.105 28.026C207.649 27.5047 207.921 26.768 207.921 25.816C207.921 24.864 207.649 24.1273 207.105 23.606C206.561 23.0847 205.734 22.824 204.623 22.824H201.461V28.808H204.623ZM222.678 16.84V42H216.864V16.84H222.678ZM225.735 32.48C225.735 30.5307 226.098 28.8193 226.823 27.346C227.571 25.8727 228.58 24.7393 229.849 23.946C231.119 23.1527 232.535 22.756 234.099 22.756C235.437 22.756 236.604 23.028 237.601 23.572C238.621 24.116 239.403 24.83 239.947 25.714V23.028H245.761V42H239.947V39.314C239.381 40.198 238.587 40.912 237.567 41.456C236.57 42 235.403 42.272 234.065 42.272C232.524 42.272 231.119 41.8753 229.849 41.082C228.58 40.266 227.571 39.1213 226.823 37.648C226.098 36.152 225.735 34.4293 225.735 32.48ZM239.947 32.514C239.947 31.0633 239.539 29.9187 238.723 29.08C237.93 28.2413 236.955 27.822 235.799 27.822C234.643 27.822 233.657 28.2413 232.841 29.08C232.048 29.896 231.651 31.0293 231.651 32.48C231.651 33.9307 232.048 35.0867 232.841 35.948C233.657 36.7867 234.643 37.206 235.799 37.206C236.955 37.206 237.93 36.7867 238.723 35.948C239.539 35.1093 239.947 33.9647 239.947 32.514ZM269.347 23.028L257.447 51.01H251.191L255.543 41.354L247.825 23.028H254.319L258.705 34.894L263.057 23.028H269.347ZM289.334 32.208C289.334 32.752 289.3 33.3187 289.232 33.908H276.074C276.164 35.0867 276.538 35.9933 277.196 36.628C277.876 37.24 278.703 37.546 279.678 37.546C281.128 37.546 282.137 36.934 282.704 35.71H288.892C288.574 36.9567 287.996 38.0787 287.158 39.076C286.342 40.0733 285.31 40.8553 284.064 41.422C282.817 41.9887 281.423 42.272 279.882 42.272C278.023 42.272 276.368 41.8753 274.918 41.082C273.467 40.2887 272.334 39.1553 271.518 37.682C270.702 36.2087 270.294 34.486 270.294 32.514C270.294 30.542 270.69 28.8193 271.484 27.346C272.3 25.8727 273.433 24.7393 274.884 23.946C276.334 23.1527 278 22.756 279.882 22.756C281.718 22.756 283.35 23.1413 284.778 23.912C286.206 24.6827 287.316 25.782 288.11 27.21C288.926 28.638 289.334 30.304 289.334 32.208ZM283.384 30.678C283.384 29.6807 283.044 28.8873 282.364 28.298C281.684 27.7087 280.834 27.414 279.814 27.414C278.839 27.414 278.012 27.6973 277.332 28.264C276.674 28.8307 276.266 29.6353 276.108 30.678H283.384ZM298.215 26.19C298.895 25.1473 299.745 24.3313 300.765 23.742C301.785 23.13 302.918 22.824 304.165 22.824V28.978H302.567C301.116 28.978 300.028 29.2953 299.303 29.93C298.578 30.542 298.215 31.63 298.215 33.194V42H292.401V23.028H298.215V26.19Z" fill="#D9D9D9"/>
<defs>
<clipPath id="clip0_29_26">
<rect width="76" height="60" fill="white"/>
</clipPath>
</defs>
</svg>
